<svg width="20" height="20" viewBox="0 0 20 20" fill="none" xmlns="http://www.w3.org/2000/svg">
<path d="M5.62501 18.3334C5.00001 18.3334 4.46182 18.1216 4.01043 17.698C3.55904 17.2743 3.33334 16.75 3.33334 16.125V4.50004C3.33334 3.97226 3.49654 3.50004 3.82293 3.08337C4.14932 2.66671 4.5764 2.40282 5.10418 2.29171L11.3542 1.06254C11.8681 0.95143 12.3264 1.06254 12.7292 1.39587C13.132 1.72921 13.3333 2.15976 13.3333 2.68754V12.625C13.3333 13.0278 13.2083 13.3855 12.9583 13.698C12.7083 14.0105 12.3889 14.2014 12 14.2709L5.43751 15.5834C5.31251 15.6112 5.20834 15.6771 5.12501 15.7813C5.04168 15.8855 5.00001 16 5.00001 16.125C5.00001 16.2778 5.06251 16.4063 5.18751 16.5105C5.31251 16.6146 5.45834 16.6667 5.62501 16.6667H15V4.16671C15 3.9306 15.0799 3.73268 15.2396 3.57296C15.3993 3.41324 15.5972 3.33337 15.8333 3.33337C16.0695 3.33337 16.2674 3.41324 16.4271 3.57296C16.5868 3.73268 16.6667 3.9306 16.6667 4.16671V16.6667C16.6667 17.125 16.5035 17.5174 16.1771 17.8438C15.8507 18.1702 15.4583 18.3334 15 18.3334H5.62501ZM6.83334 13.625C7.02779 13.5834 7.18751 13.4862 7.31251 13.3334C7.43751 13.1806 7.50001 13.007 7.50001 12.8125V4.54171C7.50001 4.27782 7.39932 4.06254 7.19793 3.89587C6.99654 3.72921 6.7639 3.67365 6.50001 3.72921C6.30557 3.77087 6.14584 3.8681 6.02084 4.02087C5.89584 4.17365 5.83334 4.34726 5.83334 4.54171V12.8125C5.83334 13.0764 5.93404 13.2917 6.13543 13.4584C6.33682 13.625 6.56945 13.6806 6.83334 13.625Z" fill="black"/>
</svg>
