<svg width="20" height="20" viewBox="0 0 20 20" fill="none" xmlns="http://www.w3.org/2000/svg">
<g clip-path="url(#clip0_4511_334)">
<path d="M3.33333 2.5C3.79357 2.5 4.16667 2.8731 4.16667 3.33333V15.8333H16.6667C17.1269 15.8333 17.5 16.2064 17.5 16.6667C17.5 17.1269 17.1269 17.5 16.6667 17.5H3.35714C2.88376 17.5 2.5 17.1162 2.5 16.6429V3.33333C2.5 2.8731 2.8731 2.5 3.33333 2.5ZM16.3216 5.83323C16.647 5.50789 17.1746 5.50792 17.5 5.8333C17.8254 6.15871 17.8254 6.68629 17.5 7.0117L13.3333 11.1783L10.8333 8.67917L7.84503 11.6668C7.51962 11.9921 6.99208 11.9921 6.6667 11.6667C6.34129 11.3413 6.34129 10.8137 6.6667 10.4883L10.8333 6.32167L13.3333 8.82083L16.3216 5.83323Z" fill="#0E0E0E"/>
</g>
<defs>
<clipPath id="clip0_4511_334">
<rect width="20" height="20" fill="white"/>
</clipPath>
</defs>
</svg>
