<svg width="16" height="16" viewBox="0 0 16 16" fill="none" xmlns="http://www.w3.org/2000/svg">
<g clip-path="url(#clip0_4511_764)">
<path d="M2.66667 2C3.03486 2 3.33333 2.29848 3.33333 2.66667V12.6667H13.3333C13.7015 12.6667 14 12.9651 14 13.3333C14 13.7015 13.7015 14 13.3333 14H2.68571C2.307 14 2 13.693 2 13.3143V2.66667C2 2.29848 2.29848 2 2.66667 2ZM13.0573 4.66658C13.3176 4.40631 13.7397 4.40634 14 4.66664C14.2603 4.92696 14.2603 5.34904 14 5.60936L10.6667 8.94267L8.66667 6.94333L6.27603 9.33342C6.01569 9.59369 5.59366 9.59366 5.33336 9.33336C5.07304 9.07304 5.07304 8.65097 5.33336 8.39064L8.66667 5.05733L10.6667 7.05667L13.0573 4.66658Z" fill="#0E0E0E"/>
</g>
<defs>
<clipPath id="clip0_4511_764">
<rect width="16" height="16" fill="white"/>
</clipPath>
</defs>
</svg>
