<svg width="16" height="16" viewBox="0 0 16 16" fill="none" xmlns="http://www.w3.org/2000/svg">
<path d="M13.3333 14.6666H2.66667C2.48986 14.6666 2.32029 14.5963 2.19526 14.4713C2.07024 14.3463 2 14.1767 2 13.9999V1.99992C2 1.82311 2.07024 1.65354 2.19526 1.52851C2.32029 1.40349 2.48986 1.33325 2.66667 1.33325H13.3333C13.5101 1.33325 13.6797 1.40349 13.8047 1.52851C13.9298 1.65354 14 1.82311 14 1.99992V13.9999C14 14.1767 13.9298 14.3463 13.8047 14.4713C13.6797 14.5963 13.5101 14.6666 13.3333 14.6666ZM11.6667 13.3333C12.219 13.3333 12.6667 12.8855 12.6667 12.3333V3.66659C12.6667 3.1143 12.219 2.66659 11.6667 2.66659H4.33333C3.78105 2.66659 3.33333 3.1143 3.33333 3.66659V12.3333C3.33333 12.8855 3.78105 13.3333 4.33333 13.3333H11.6667ZM5.33333 5.33325C5.33333 4.96506 5.63181 4.66659 6 4.66659H10C10.3682 4.66659 10.6667 4.96506 10.6667 5.33325C10.6667 5.70144 10.3682 5.99992 10 5.99992H6C5.63181 5.99992 5.33333 5.70144 5.33333 5.33325ZM5.33333 7.99992C5.33333 7.63173 5.63181 7.33325 6 7.33325H10C10.3682 7.33325 10.6667 7.63173 10.6667 7.99992C10.6667 8.36811 10.3682 8.66659 10 8.66659H6C5.63181 8.66659 5.33333 8.36811 5.33333 7.99992ZM5.33333 10.6666C5.33333 10.2984 5.63181 9.99992 6 9.99992H8C8.36819 9.99992 8.66667 10.2984 8.66667 10.6666C8.66667 11.0348 8.36819 11.3333 8 11.3333H6C5.63181 11.3333 5.33333 11.0348 5.33333 10.6666Z" fill="#0E0E0E"/>
</svg>
