<svg width="32" height="32" viewBox="0 0 32 32" fill="none" xmlns="http://www.w3.org/2000/svg">
<path d="M14.0316 0.137207C14.4247 0.087263 14.8898 0.0428683 15.0559 0.0317696C15.222 0.0206709 17.4423 0.00957224 19.9838 0.0040229C24.4853 -0.00707578 24.6126 -0.00152644 24.8396 0.103911C24.9836 0.170503 25.111 0.28149 25.1608 0.381378C25.2328 0.525661 25.2438 0.991806 25.2438 3.5445C25.2438 6.13604 25.2328 6.56334 25.1608 6.69098C25.111 6.77977 24.9947 6.8963 24.895 6.95735C24.7234 7.06278 24.596 7.06833 19.7623 7.10163L19.7218 7.10186C14.8618 7.12938 14.7997 7.12973 14.2531 7.25701C13.9485 7.3236 13.4779 7.45679 13.2011 7.55113C12.9242 7.63992 12.4536 7.83969 12.149 7.98397C11.8445 8.13381 11.3739 8.40572 11.097 8.58885C10.8202 8.77198 10.3772 9.11604 10.1004 9.35466C9.82353 9.59328 9.40273 10.0317 9.1591 10.3313C8.91548 10.6255 8.56112 11.1249 8.36732 11.4412C8.17907 11.752 7.9133 12.2681 7.77488 12.5899C7.64199 12.9118 7.47035 13.4112 7.38729 13.6998C7.30977 13.9884 7.20457 14.5377 7.1492 14.9207C7.09383 15.3036 7.01632 15.6698 6.9831 15.7364C6.94434 15.8085 6.8336 15.914 6.73947 15.975C6.56229 16.0805 6.45709 16.086 3.53914 16.086C0.621182 16.086 0.51598 16.0805 0.344336 15.975C0.244672 15.914 0.122859 15.7697 0.0730272 15.6532C-0.00448963 15.4867 -0.0155635 15.3313 0.017658 14.7819C0.0342688 14.3935 0.117322 13.7775 0.216987 13.3113C0.305578 12.8674 0.466148 12.1959 0.57135 11.813C0.671014 11.4301 0.853732 10.8696 0.96447 10.5644C1.08075 10.2592 1.28561 9.74867 1.42957 9.4268C1.57353 9.10494 1.8393 8.5833 2.01648 8.26144C2.19367 7.93958 2.52588 7.40129 2.75289 7.06833C2.97991 6.72982 3.35642 6.21928 3.58897 5.93072C3.82152 5.64215 4.31984 5.09277 4.70189 4.70986C5.08393 4.32696 5.63209 3.82752 5.92001 3.59445C6.20793 3.36137 6.6841 3.01177 6.97202 2.81199C7.25994 2.61221 7.75826 2.2959 8.07941 2.11277C8.40055 1.92964 8.88226 1.67437 9.1591 1.54674C9.43595 1.4191 9.93427 1.20823 10.2665 1.07505C10.5987 0.941862 11.1358 0.758733 11.4569 0.664394C11.7781 0.575605 12.3262 0.436871 12.675 0.359181C13.0239 0.287039 13.6385 0.181602 14.0316 0.137207Z" fill="#FFC629"/>
<path d="M25.0667 16.2525C25.122 16.1748 25.2549 16.0694 25.3601 16.0194C25.5318 15.9306 25.7975 15.9195 28.4663 15.9195C30.7641 15.9195 31.4286 15.9362 31.567 15.9917C31.6667 16.0361 31.8051 16.1415 31.8771 16.2303C31.9933 16.3746 32.0044 16.4467 31.9989 17.0294C31.9989 17.379 31.9601 17.9062 31.9103 18.1948C31.8605 18.4833 31.711 19.1714 31.5725 19.7208C31.4341 20.2702 31.2292 20.9805 31.113 21.3024C30.9967 21.6243 30.814 22.0959 30.7032 22.3568C30.587 22.6176 30.3489 23.117 30.1662 23.4666C29.9834 23.8162 29.6235 24.4156 29.3744 24.7985C29.1197 25.1814 28.6767 25.7807 28.3943 26.1303C28.1064 26.4799 27.597 27.0404 27.2648 27.3734C26.9326 27.7063 26.3955 28.1891 26.0744 28.4444C25.7532 28.7052 25.2438 29.0826 24.9393 29.2879C24.6348 29.4932 24.1254 29.8095 23.8042 29.9871C23.4831 30.1647 22.946 30.4366 22.6138 30.5864C22.2816 30.7363 21.7279 30.9582 21.3957 31.0803C21.0635 31.2024 20.4599 31.3855 20.0668 31.491C19.6737 31.5909 19.0591 31.7241 18.7103 31.7851C18.3615 31.8461 17.7247 31.9238 17.2984 31.9571C16.7779 32.0015 15.0005 32.0126 7.20457 31.9849L7.05508 31.8461C6.97202 31.7684 6.87236 31.6408 6.82806 31.552C6.76716 31.4299 6.75055 30.8806 6.75055 28.4888C6.75055 25.8307 6.76162 25.5587 6.85021 25.3701C6.90004 25.2591 7.00524 25.1259 7.08276 25.0815C7.19904 25.0038 7.77488 24.9872 12.0383 24.9594C16.2297 24.9317 16.9219 24.915 17.3814 24.8373C17.6693 24.7818 18.1289 24.6764 18.4058 24.5987C18.6826 24.521 19.1145 24.3712 19.3747 24.2602C19.6349 24.1548 20.0668 23.9439 20.3437 23.7885C20.6205 23.6387 21.0635 23.339 21.3403 23.1337C21.6172 22.9284 22.0158 22.5898 22.2318 22.379C22.4477 22.1681 22.7522 21.8351 22.9183 21.6354C23.0789 21.4356 23.3447 21.0749 23.5053 20.8307C23.6658 20.5865 23.9205 20.1259 24.07 19.8041C24.225 19.4822 24.4244 18.9939 24.513 18.7219C24.6016 18.4445 24.7178 18.0227 24.7677 17.7786C24.8175 17.5344 24.8784 17.1237 24.9061 16.8629C24.9448 16.5577 24.9947 16.3413 25.0667 16.2525Z" fill="#FFC629"/>
<path d="M15.0004 12.6458C15.1388 12.6069 15.3714 12.557 15.5264 12.5348C15.6759 12.5071 16.0026 12.5015 16.2462 12.5182C16.4898 12.5348 16.8774 12.6069 17.1044 12.6791C17.3314 12.7512 17.6692 12.9011 17.8519 13.0231C18.0346 13.1397 18.2838 13.3228 18.4001 13.4282C18.5163 13.5337 18.7323 13.7779 18.8707 13.9776C19.0091 14.1774 19.1918 14.5215 19.2749 14.7379C19.3635 14.9599 19.4521 15.3372 19.4742 15.5703C19.5019 15.8089 19.5019 16.1918 19.4798 16.4193C19.4521 16.6469 19.3912 16.9576 19.3413 17.113C19.2915 17.2628 19.1697 17.5403 19.0756 17.7234C18.9759 17.9121 18.7267 18.2395 18.4887 18.4781C18.1675 18.8056 17.9682 18.9498 17.6028 19.133C17.3425 19.2606 16.9605 19.3993 16.7445 19.4437C16.5286 19.4881 16.213 19.527 16.0358 19.527C15.8642 19.527 15.5264 19.4881 15.2939 19.4382C15.0558 19.3882 14.7125 19.2828 14.5298 19.1996C14.347 19.1108 14.037 18.9221 13.8432 18.7723C13.6494 18.6224 13.3781 18.3505 13.2397 18.1674C13.1012 17.9843 12.9185 17.6735 12.8244 17.4737C12.7358 17.2739 12.6306 16.9521 12.5863 16.7523C12.5475 16.5525 12.5088 16.2251 12.5088 16.0142C12.5088 15.8089 12.5475 15.4593 12.5974 15.2429C12.6472 15.0209 12.7746 14.6491 12.8853 14.4216C13.0348 14.1108 13.2009 13.8888 13.5331 13.5559C13.8376 13.2507 14.0979 13.0509 14.3637 12.9122C14.5796 12.8012 14.862 12.6791 15.0004 12.6458Z" fill="#FFC629"/>
</svg>
