<svg width="24" height="24" viewBox="0 0 24 24" fill="none" xmlns="http://www.w3.org/2000/svg">
<g clip-path="url(#clip0_4530_1044)">
<path d="M16 2C16.5523 2 17 2.44772 17 3V4H20.007C20.555 4 21 4.445 21 4.993V21.007C21 21.555 20.555 22 20.007 22H3.993C3.445 22 3 21.555 3 21.007V4.993C3 4.445 3.445 4 3.993 4H7V3C7 2.44772 7.44772 2 8 2H16ZM7 6H5V20H19V6H17V7C17 7.55228 16.5523 8 16 8H8C7.44772 8 7 7.55228 7 7V6ZM8 16C8.55228 16 9 16.4477 9 17C9 17.5523 8.55228 18 8 18C7.44772 18 7 17.5523 7 17C7 16.4477 7.44772 16 8 16ZM8 13C8.55228 13 9 13.4477 9 14C9 14.5523 8.55228 15 8 15C7.44772 15 7 14.5523 7 14C7 13.4477 7.44772 13 8 13ZM8 10C8.55228 10 9 10.4477 9 11C9 11.5523 8.55228 12 8 12C7.44772 12 7 11.5523 7 11C7 10.4477 7.44772 10 8 10ZM15 4H9V6H15V4Z" fill="#0E0E0E"/>
</g>
<defs>
<clipPath id="clip0_4530_1044">
<rect width="24" height="24" fill="white"/>
</clipPath>
</defs>
</svg>
