<svg width="24" height="24" viewBox="0 0 24 24" fill="none" xmlns="http://www.w3.org/2000/svg">
<path d="M7 6V3C7 2.73478 7.10536 2.48043 7.29289 2.29289C7.48043 2.10536 7.73478 2 8 2H20C20.2652 2 20.5196 2.10536 20.7071 2.29289C20.8946 2.48043 21 2.73478 21 3V17C21 17.2652 20.8946 17.5196 20.7071 17.7071C20.5196 17.8946 20.2652 18 20 18H17V21C17 21.552 16.55 22 15.993 22H4.007C3.87513 22.0008 3.7444 21.9755 3.62232 21.9256C3.50025 21.8757 3.38923 21.8022 3.29566 21.7093C3.20208 21.6164 3.12779 21.5059 3.07705 21.3841C3.02632 21.2624 3.00013 21.1319 3 21L3.003 7C3.003 6.448 3.453 6 4.01 6H7ZM6.00275 8C5.45056 8 5.00289 8.44756 5.00275 8.99975L5.00025 18.9998C5.00011 19.5521 5.44787 20 6.00025 20H14C14.5523 20 15 19.5523 15 19V9C15 8.44771 14.5523 8 14 8H6.00275ZM9 6H16C16.5523 6 17 6.44772 17 7V16H18C18.5523 16 19 15.5523 19 15V5C19 4.44772 18.5523 4 18 4H10C9.44772 4 9 4.44772 9 5V6Z" fill="#0E0E0E"/>
</svg>
