<svg width="40" height="40" viewBox="0 0 40 40" fill="none" xmlns="http://www.w3.org/2000/svg">
<path fill-rule="evenodd" clip-rule="evenodd" d="M16.25 9.5C15.763 9.5 15.3648 9.66465 15.0147 10.0147C14.6647 10.3648 14.5 10.763 14.5 11.25C14.5 11.6642 14.1642 12 13.75 12H11.25C10.763 12 10.3648 12.1647 10.0147 12.5147C9.66465 12.8648 9.5 13.263 9.5 13.75V15C9.5 16.3995 9.95851 17.6017 10.8873 18.6408C11.8182 19.6823 12.9587 20.2772 14.3394 20.4428C14.6137 20.4758 14.8477 20.6569 14.9484 20.9142C15.2754 21.7497 15.7839 22.4377 16.4813 22.9902C17.193 23.554 18.0009 23.9382 18.9143 24.1432C19.2567 24.2201 19.5 24.5241 19.5 24.875V28.75C19.5 29.1642 19.1642 29.5 18.75 29.5H15C14.8347 29.5 14.7317 29.5477 14.6397 29.6397C14.5477 29.7317 14.5 29.8347 14.5 30C14.5 30.1653 14.5477 30.2683 14.6397 30.3603C14.7317 30.4523 14.8347 30.5 15 30.5H25C25.1653 30.5 25.2683 30.4523 25.3603 30.3603C25.4523 30.2683 25.5 30.1653 25.5 30C25.5 29.8347 25.4523 29.7317 25.3603 29.6397C25.2683 29.5477 25.1653 29.5 25 29.5H21.25C20.8358 29.5 20.5 29.1642 20.5 28.75V24.875C20.5 24.5241 20.7433 24.2201 21.0857 24.1432C21.9991 23.9382 22.807 23.554 23.5187 22.9902C24.2161 22.4377 24.7246 21.7497 25.0516 20.9142C25.1523 20.6569 25.3863 20.4758 25.6606 20.4428C27.0413 20.2772 28.1818 19.6823 29.1127 18.6408C30.0415 17.6017 30.5 16.3995 30.5 15V13.75C30.5 13.263 30.3353 12.8648 29.9853 12.5147C29.6352 12.1647 29.237 12 28.75 12H26.25C25.8358 12 25.5 11.6642 25.5 11.25C25.5 10.763 25.3353 10.3648 24.9853 10.0147C24.6352 9.66465 24.237 9.5 23.75 9.5H16.25ZM13.954 8.95404C14.5832 8.32493 15.362 8 16.25 8H23.75C24.638 8 25.4168 8.32493 26.046 8.95404C26.4911 9.39919 26.784 9.9193 26.9172 10.5H28.75C29.638 10.5 30.4168 10.8249 31.046 11.454C31.6751 12.0832 32 12.862 32 13.75V15C32 16.7671 31.4064 18.3254 30.2311 19.6404C29.1565 20.8427 27.8296 21.5895 26.2739 21.8674C25.8503 22.7708 25.2407 23.5396 24.4501 24.166C23.7148 24.7485 22.8964 25.1772 22 25.4518V28H25C25.543 28 26.0338 28.1919 26.421 28.579C26.8081 28.9662 27 29.457 27 30C27 30.543 26.8081 31.0338 26.421 31.421C26.0338 31.8081 25.543 32 25 32H15C14.457 32 13.9662 31.8081 13.579 31.421C13.1919 31.0338 13 30.543 13 30C13 29.457 13.1919 28.9662 13.579 28.579C13.9662 28.1919 14.457 28 15 28H18V25.4518C17.1036 25.1772 16.2852 24.7485 15.5499 24.166C14.7593 23.5396 14.1497 22.7708 13.7261 21.8674C12.1704 21.5895 10.8435 20.8427 9.76894 19.6404C8.59357 18.3254 8 16.7671 8 15V13.75C8 12.862 8.32493 12.0832 8.95404 11.454C9.58316 10.8249 10.362 10.5 11.25 10.5H13.0828C13.216 9.9193 13.5089 9.39919 13.954 8.95404ZM10.5 13.75C10.5 13.3358 10.8358 13 11.25 13H13.75C14.1642 13 14.5 13.3358 14.5 13.75V18.5C14.5 18.7444 14.381 18.9734 14.181 19.1138C13.981 19.2542 13.7251 19.2884 13.4953 19.2054C12.606 18.8843 11.8775 18.3395 11.3292 17.5794C10.7777 16.8148 10.5 15.9474 10.5 15V13.75ZM12 14.5V15C12 15.6359 12.1806 16.1956 12.5458 16.7019C12.6817 16.8903 12.8328 17.0584 13 17.2066V14.5H12ZM25.5 13.75C25.5 13.3358 25.8358 13 26.25 13H28.75C29.1642 13 29.5 13.3358 29.5 13.75V15C29.5 15.9474 29.2223 16.8148 28.6708 17.5794C28.1225 18.3395 27.394 18.8843 26.5047 19.2054C26.2749 19.2884 26.019 19.2542 25.819 19.1138C25.619 18.9734 25.5 18.7444 25.5 18.5V13.75ZM27 14.5V17.2066C27.1672 17.0584 27.3183 16.8903 27.4542 16.7019C27.8194 16.1956 28 15.6359 28 15V14.5H27Z" fill="black"/>
</svg>
