<svg width="24" height="24" viewBox="0 0 24 24" fill="none" xmlns="http://www.w3.org/2000/svg">
<path d="M18.364 14.121C17.9735 14.5115 17.3405 14.5115 16.95 14.121C16.5595 13.7305 16.5595 13.0975 16.95 12.707L17.657 12C18.0285 11.6286 18.3231 11.1876 18.5241 10.7023C18.7252 10.217 18.8286 9.69681 18.8286 9.1715C18.8286 8.6462 18.7252 8.12605 18.5241 7.64073C18.3231 7.15542 18.0285 6.71445 17.657 6.343C17.2856 5.97156 16.8446 5.67691 16.3593 5.47589C15.874 5.27487 15.3538 5.1714 14.8285 5.1714C14.3032 5.1714 13.7831 5.27487 13.2977 5.47589C12.8124 5.67691 12.3715 5.97156 12 6.343L11.293 7.05C10.9025 7.44047 10.2695 7.44047 9.87901 7.05C9.48855 6.65954 9.48855 6.02647 9.87901 5.636L10.586 4.929C11.7143 3.81892 13.2356 3.19966 14.8184 3.2061C16.4012 3.21255 17.9174 3.84418 19.0366 4.96341C20.1558 6.08265 20.7875 7.5988 20.7939 9.18162C20.8004 10.7644 20.1811 12.2857 19.071 13.414L18.364 14.121ZM14.121 16.95C14.5115 17.3405 14.5115 17.9735 14.121 18.364L13.414 19.071C12.8585 19.6356 12.1968 20.0846 11.4669 20.3922C10.737 20.6998 9.95343 20.8598 9.16139 20.863C8.36936 20.8662 7.58452 20.7126 6.85215 20.411C6.11979 20.1094 5.45438 19.6658 4.89432 19.1057C4.33426 18.5456 3.89063 17.8802 3.58902 17.1479C3.28741 16.4155 3.13379 15.6307 3.13701 14.8386C3.14024 14.0466 3.30025 13.263 3.60781 12.5331C3.91538 11.8033 4.36441 11.1415 4.92901 10.586L5.63601 9.879C6.02648 9.48854 6.65955 9.48854 7.05001 9.879C7.44048 10.2695 7.44048 10.9025 7.05001 11.293L6.34301 12C5.97157 12.3714 5.67692 12.8124 5.4759 13.2977C5.27488 13.783 5.17141 14.3032 5.17141 14.8285C5.17141 15.3538 5.27488 15.874 5.4759 16.3593C5.67692 16.8446 5.97157 17.2856 6.34301 17.657C6.71446 18.0284 7.15543 18.3231 7.64074 18.5241C8.12605 18.7251 8.64621 18.8286 9.17151 18.8286C9.69681 18.8286 10.217 18.7251 10.7023 18.5241C11.1876 18.3231 11.6286 18.0284 12 17.657L12.707 16.95C13.0975 16.5595 13.7305 16.5595 14.121 16.95ZM14.1205 8.46448C14.5113 8.07375 15.1448 8.07375 15.5355 8.46448C15.9262 8.85523 15.9262 9.48876 15.5354 9.87948L9.87904 15.5351C9.48851 15.9256 8.85543 15.9256 8.46479 15.5353C8.07394 15.1447 8.07382 14.5112 8.46454 14.1205L14.1205 8.46448Z" fill="#0E0E0E"/>
</svg>
