<svg width="24" height="24" viewBox="0 0 24 24" fill="none" xmlns="http://www.w3.org/2000/svg">
<path d="M20 22H4C3.73478 22 3.48043 21.8946 3.29289 21.7071C3.10536 21.5196 3 21.2652 3 21V3C3 2.73478 3.10536 2.48043 3.29289 2.29289C3.48043 2.10536 3.73478 2 4 2H20C20.2652 2 20.5196 2.10536 20.7071 2.29289C20.8946 2.48043 21 2.73478 21 3V21C21 21.2652 20.8946 21.5196 20.7071 21.7071C20.5196 21.8946 20.2652 22 20 22ZM18 20C18.5523 20 19 19.5523 19 19V5C19 4.44772 18.5523 4 18 4H6C5.44772 4 5 4.44772 5 5V19C5 19.5523 5.44772 20 6 20H18ZM8 8C8 7.44772 8.44772 7 9 7H15C15.5523 7 16 7.44772 16 8C16 8.55228 15.5523 9 15 9H9C8.44772 9 8 8.55228 8 8ZM8 12C8 11.4477 8.44772 11 9 11H15C15.5523 11 16 11.4477 16 12C16 12.5523 15.5523 13 15 13H9C8.44772 13 8 12.5523 8 12ZM8 16C8 15.4477 8.44772 15 9 15H12C12.5523 15 13 15.4477 13 16C13 16.5523 12.5523 17 12 17H9C8.44772 17 8 16.5523 8 16Z" fill="#0E0E0E"/>
</svg>
