<svg width="124" height="32" viewBox="0 0 124 32" fill="none" xmlns="http://www.w3.org/2000/svg">
<path d="M14.0316 0.137207C14.4247 0.087263 14.8898 0.0428683 15.0559 0.0317696C15.222 0.0206709 17.4423 0.00957224 19.9838 0.0040229C24.4853 -0.00707578 24.6126 -0.00152644 24.8396 0.103911C24.9836 0.170503 25.111 0.28149 25.1608 0.381378C25.2328 0.525661 25.2438 0.991806 25.2438 3.5445C25.2438 6.13604 25.2328 6.56334 25.1608 6.69098C25.111 6.77977 24.9947 6.8963 24.895 6.95735C24.7234 7.06278 24.596 7.06833 19.7623 7.10163L19.7218 7.10186C14.8618 7.12938 14.7997 7.12973 14.2531 7.25701C13.9485 7.3236 13.4779 7.45679 13.2011 7.55113C12.9242 7.63992 12.4536 7.83969 12.149 7.98397C11.8445 8.13381 11.3739 8.40572 11.097 8.58885C10.8202 8.77198 10.3772 9.11604 10.1004 9.35466C9.82353 9.59328 9.40273 10.0317 9.1591 10.3313C8.91548 10.6255 8.56112 11.1249 8.36732 11.4412C8.17907 11.752 7.9133 12.2681 7.77488 12.5899C7.64199 12.9118 7.47035 13.4112 7.38729 13.6998C7.30977 13.9884 7.20457 14.5377 7.1492 14.9207C7.09383 15.3036 7.01632 15.6698 6.9831 15.7364C6.94434 15.8085 6.8336 15.914 6.73947 15.975C6.56229 16.0805 6.45709 16.086 3.53914 16.086C0.621182 16.086 0.51598 16.0805 0.344336 15.975C0.244672 15.914 0.122859 15.7697 0.0730272 15.6532C-0.00448963 15.4867 -0.0155635 15.3313 0.017658 14.7819C0.0342688 14.3935 0.117322 13.7775 0.216987 13.3113C0.305578 12.8674 0.466148 12.1959 0.57135 11.813C0.671014 11.4301 0.853732 10.8696 0.96447 10.5644C1.08075 10.2592 1.28561 9.74867 1.42957 9.4268C1.57353 9.10494 1.8393 8.5833 2.01648 8.26144C2.19367 7.93958 2.52588 7.40129 2.75289 7.06833C2.97991 6.72982 3.35642 6.21928 3.58897 5.93072C3.82152 5.64215 4.31984 5.09277 4.70189 4.70986C5.08393 4.32696 5.63209 3.82752 5.92001 3.59445C6.20793 3.36137 6.6841 3.01177 6.97202 2.81199C7.25994 2.61221 7.75826 2.2959 8.07941 2.11277C8.40055 1.92964 8.88226 1.67437 9.1591 1.54674C9.43595 1.4191 9.93427 1.20823 10.2665 1.07505C10.5987 0.941862 11.1358 0.758733 11.4569 0.664394C11.7781 0.575605 12.3262 0.436871 12.675 0.359181C13.0239 0.287039 13.6385 0.181602 14.0316 0.137207Z" fill="#FFC629"/>
<path d="M25.0667 16.2525C25.122 16.1748 25.2549 16.0694 25.3601 16.0194C25.5318 15.9306 25.7975 15.9195 28.4663 15.9195C30.7641 15.9195 31.4286 15.9362 31.567 15.9917C31.6667 16.0361 31.8051 16.1415 31.8771 16.2303C31.9933 16.3746 32.0044 16.4467 31.9989 17.0294C31.9989 17.379 31.9601 17.9062 31.9103 18.1948C31.8605 18.4833 31.711 19.1714 31.5725 19.7208C31.4341 20.2702 31.2292 20.9805 31.113 21.3024C30.9967 21.6243 30.814 22.0959 30.7032 22.3568C30.587 22.6176 30.3489 23.117 30.1662 23.4666C29.9834 23.8162 29.6235 24.4156 29.3744 24.7985C29.1197 25.1814 28.6767 25.7807 28.3943 26.1303C28.1064 26.4799 27.597 27.0404 27.2648 27.3734C26.9326 27.7063 26.3955 28.1891 26.0744 28.4444C25.7532 28.7052 25.2438 29.0826 24.9393 29.2879C24.6348 29.4932 24.1254 29.8095 23.8042 29.9871C23.4831 30.1647 22.946 30.4366 22.6138 30.5864C22.2816 30.7363 21.7279 30.9582 21.3957 31.0803C21.0635 31.2024 20.4599 31.3855 20.0668 31.491C19.6737 31.5909 19.0591 31.7241 18.7103 31.7851C18.3615 31.8461 17.7247 31.9238 17.2984 31.9571C16.7779 32.0015 15.0005 32.0126 7.20457 31.9849L7.05508 31.8461C6.97202 31.7684 6.87236 31.6408 6.82806 31.552C6.76716 31.4299 6.75055 30.8806 6.75055 28.4888C6.75055 25.8307 6.76162 25.5587 6.85021 25.3701C6.90004 25.2591 7.00524 25.1259 7.08276 25.0815C7.19904 25.0038 7.77488 24.9872 12.0383 24.9594C16.2297 24.9317 16.9219 24.915 17.3814 24.8373C17.6693 24.7818 18.1289 24.6764 18.4058 24.5987C18.6826 24.521 19.1145 24.3712 19.3747 24.2602C19.6349 24.1548 20.0668 23.9439 20.3437 23.7885C20.6205 23.6387 21.0635 23.339 21.3403 23.1337C21.6172 22.9284 22.0158 22.5898 22.2318 22.379C22.4477 22.1681 22.7522 21.8351 22.9183 21.6354C23.0789 21.4356 23.3447 21.0749 23.5053 20.8307C23.6658 20.5865 23.9205 20.1259 24.07 19.8041C24.225 19.4822 24.4244 18.9939 24.513 18.7219C24.6016 18.4445 24.7178 18.0227 24.7677 17.7786C24.8175 17.5344 24.8784 17.1237 24.9061 16.8629C24.9448 16.5577 24.9947 16.3413 25.0667 16.2525Z" fill="#FFC629"/>
<path d="M15.0004 12.6458C15.1388 12.6069 15.3714 12.557 15.5264 12.5348C15.6759 12.5071 16.0026 12.5015 16.2462 12.5182C16.4898 12.5348 16.8774 12.6069 17.1044 12.6791C17.3314 12.7512 17.6692 12.9011 17.8519 13.0231C18.0346 13.1397 18.2838 13.3228 18.4001 13.4282C18.5163 13.5337 18.7323 13.7779 18.8707 13.9776C19.0091 14.1774 19.1918 14.5215 19.2749 14.7379C19.3635 14.9599 19.4521 15.3372 19.4742 15.5703C19.5019 15.8089 19.5019 16.1918 19.4798 16.4193C19.4521 16.6469 19.3912 16.9576 19.3413 17.113C19.2915 17.2628 19.1697 17.5403 19.0756 17.7234C18.9759 17.9121 18.7267 18.2395 18.4887 18.4781C18.1675 18.8056 17.9682 18.9498 17.6028 19.133C17.3425 19.2606 16.9605 19.3993 16.7445 19.4437C16.5286 19.4881 16.213 19.527 16.0358 19.527C15.8642 19.527 15.5264 19.4881 15.2939 19.4382C15.0558 19.3882 14.7125 19.2828 14.5298 19.1996C14.347 19.1108 14.037 18.9221 13.8432 18.7723C13.6494 18.6224 13.3781 18.3505 13.2397 18.1674C13.1012 17.9843 12.9185 17.6735 12.8244 17.4737C12.7358 17.2739 12.6306 16.9521 12.5863 16.7523C12.5475 16.5525 12.5088 16.2251 12.5088 16.0142C12.5088 15.8089 12.5475 15.4593 12.5974 15.2429C12.6472 15.0209 12.7746 14.6491 12.8853 14.4216C13.0348 14.1108 13.2009 13.8888 13.5331 13.5559C13.8376 13.2507 14.0979 13.0509 14.3637 12.9122C14.5796 12.8012 14.862 12.6791 15.0004 12.6458Z" fill="#FFC629"/>
<path d="M41.312 10.832H45.376C46.1013 10.832 46.7573 10.9493 47.344 11.184C47.9413 11.4187 48.448 11.7707 48.864 12.24C49.2907 12.6987 49.616 13.28 49.84 13.984C50.0747 14.6773 50.192 15.488 50.192 16.416C50.192 17.344 50.0747 18.16 49.84 18.864C49.616 19.5573 49.2907 20.1387 48.864 20.608C48.448 21.0667 47.9413 21.4133 47.344 21.648C46.7573 21.8827 46.1013 22 45.376 22H41.312V10.832ZM45.376 20.128C46.1653 20.128 46.7893 19.8987 47.248 19.44C47.7173 18.9707 47.952 18.256 47.952 17.296V15.536C47.952 14.576 47.7173 13.8667 47.248 13.408C46.7893 12.9387 46.1653 12.704 45.376 12.704H43.424V20.128H45.376ZM53.2393 12.432C52.8126 12.432 52.5033 12.336 52.3113 12.144C52.1299 11.952 52.0393 11.7067 52.0393 11.408V11.088C52.0393 10.7893 52.1299 10.544 52.3113 10.352C52.5033 10.16 52.8126 10.064 53.2393 10.064C53.6553 10.064 53.9593 10.16 54.1513 10.352C54.3433 10.544 54.4393 10.7893 54.4393 11.088V11.408C54.4393 11.7067 54.3433 11.952 54.1513 12.144C53.9593 12.336 53.6553 12.432 53.2393 12.432ZM52.2153 13.648H54.2633V22H52.2153V13.648ZM64.1731 22.704C64.1731 23.1413 64.0931 23.5253 63.9331 23.856C63.7838 24.1973 63.5331 24.48 63.1811 24.704C62.8291 24.928 62.3758 25.0987 61.8211 25.216C61.2665 25.3333 60.5891 25.392 59.7891 25.392C59.0851 25.392 58.4878 25.344 57.9971 25.248C57.5065 25.1627 57.1011 25.0347 56.7811 24.864C56.4718 24.704 56.2478 24.5013 56.1091 24.256C55.9705 24.0107 55.9011 23.7333 55.9011 23.424C55.9011 22.9547 56.0291 22.5867 56.2851 22.32C56.5518 22.064 56.9198 21.8987 57.3891 21.824V21.648C57.0478 21.5627 56.7811 21.3973 56.5891 21.152C56.4078 20.896 56.3171 20.5973 56.3171 20.256C56.3171 20.0427 56.3598 19.856 56.4451 19.696C56.5305 19.5253 56.6425 19.3813 56.7811 19.264C56.9305 19.1467 57.0958 19.0507 57.2771 18.976C57.4585 18.8907 57.6505 18.8267 57.8531 18.784V18.72C57.3411 18.4853 56.9571 18.16 56.7011 17.744C56.4558 17.328 56.3331 16.8427 56.3331 16.288C56.3331 15.4347 56.6265 14.752 57.2131 14.24C57.7998 13.7173 58.6585 13.456 59.7891 13.456C60.0451 13.456 60.2958 13.472 60.5411 13.504C60.7971 13.536 61.0318 13.5893 61.2451 13.664V13.392C61.2451 12.5813 61.6398 12.176 62.4291 12.176H63.7251V13.744H61.9491V13.968C62.3865 14.2133 62.7118 14.5333 62.9251 14.928C63.1385 15.3227 63.2451 15.776 63.2451 16.288C63.2451 17.1307 62.9518 17.808 62.3651 18.32C61.7891 18.832 60.9305 19.088 59.7891 19.088C59.2985 19.088 58.8718 19.04 58.5091 18.944C58.3491 19.0187 58.2105 19.12 58.0931 19.248C57.9758 19.3653 57.9171 19.5147 57.9171 19.696C57.9171 20.112 58.2798 20.32 59.0051 20.32H61.2451C62.2691 20.32 63.0105 20.5333 63.4691 20.96C63.9385 21.376 64.1731 21.9573 64.1731 22.704ZM62.2531 22.944C62.2531 22.6773 62.1465 22.4693 61.9331 22.32C61.7198 22.1707 61.3518 22.096 60.8291 22.096H57.9811C57.6931 22.3093 57.5491 22.5973 57.5491 22.96C57.5491 23.28 57.6825 23.5307 57.9491 23.712C58.2158 23.8933 58.6691 23.984 59.3091 23.984H60.3331C61.0051 23.984 61.4905 23.8987 61.7891 23.728C62.0985 23.5573 62.2531 23.296 62.2531 22.944ZM59.7891 17.696C60.7918 17.696 61.2931 17.2693 61.2931 16.416V16.144C61.2931 15.2907 60.7918 14.864 59.7891 14.864C58.7865 14.864 58.2851 15.2907 58.2851 16.144V16.416C58.2851 17.2693 58.7865 17.696 59.7891 17.696ZM66.3799 12.432C65.9532 12.432 65.6439 12.336 65.4519 12.144C65.2705 11.952 65.1799 11.7067 65.1799 11.408V11.088C65.1799 10.7893 65.2705 10.544 65.4519 10.352C65.6439 10.16 65.9532 10.064 66.3799 10.064C66.7959 10.064 67.0999 10.16 67.2919 10.352C67.4839 10.544 67.5799 10.7893 67.5799 11.088V11.408C67.5799 11.7067 67.4839 11.952 67.2919 12.144C67.0999 12.336 66.7959 12.432 66.3799 12.432ZM65.3559 13.648H67.4039V22H65.3559V13.648ZM72.3858 22C71.6818 22 71.1431 21.8187 70.7698 21.456C70.4071 21.0827 70.2258 20.5547 70.2258 19.872V15.28H68.9938V13.648H69.6338C69.9431 13.648 70.1511 13.5787 70.2578 13.44C70.3751 13.2907 70.4338 13.072 70.4338 12.784V11.36H72.2738V13.648H73.9858V15.28H72.2738V20.368H73.8578V22H72.3858ZM81.9061 22C81.4581 22 81.1008 21.872 80.8341 21.616C80.5781 21.3493 80.4181 20.9973 80.3541 20.56H80.2581C80.1195 21.104 79.8368 21.5147 79.4101 21.792C78.9835 22.0587 78.4555 22.192 77.8261 22.192C76.9728 22.192 76.3168 21.968 75.8581 21.52C75.3995 21.072 75.1701 20.4747 75.1701 19.728C75.1701 18.864 75.4795 18.224 76.0981 17.808C76.7168 17.3813 77.5968 17.168 78.7381 17.168H80.1621V16.56C80.1621 16.0907 80.0395 15.728 79.7941 15.472C79.5488 15.216 79.1541 15.088 78.6101 15.088C78.1301 15.088 77.7408 15.1947 77.4421 15.408C77.1541 15.6107 76.9088 15.856 76.7061 16.144L75.4901 15.056C75.7995 14.576 76.2101 14.192 76.7221 13.904C77.2341 13.6053 77.9115 13.456 78.7541 13.456C79.8848 13.456 80.7435 13.712 81.3301 14.224C81.9168 14.736 82.2101 15.472 82.2101 16.432V20.368H83.0421V22H81.9061ZM78.5141 20.704C78.9728 20.704 79.3621 20.6027 79.6821 20.4C80.0021 20.1973 80.1621 19.8987 80.1621 19.504V18.4H78.8501C77.7835 18.4 77.2501 18.7413 77.2501 19.424V19.696C77.2501 20.0373 77.3568 20.2933 77.5701 20.464C77.7941 20.624 78.1088 20.704 78.5141 20.704ZM86.7476 22C86.0436 22 85.5263 21.824 85.1956 21.472C84.865 21.12 84.6996 20.624 84.6996 19.984V10.16H86.7476V20.368H87.8516V22H86.7476ZM95.904 22L92.256 10.832H94.416L96.128 16.272L97.12 19.984H97.168L98.144 16.272L99.856 10.832H101.952L98.304 22H95.904ZM103.515 22V10.832H108.539C109.051 10.832 109.51 10.9173 109.915 11.088C110.331 11.248 110.683 11.4827 110.971 11.792C111.259 12.0907 111.478 12.4533 111.627 12.88C111.776 13.3067 111.851 13.776 111.851 14.288C111.851 14.8107 111.776 15.2853 111.627 15.712C111.478 16.128 111.259 16.4907 110.971 16.8C110.683 17.0987 110.331 17.3333 109.915 17.504C109.51 17.664 109.051 17.744 108.539 17.744H105.627V22H103.515ZM105.627 15.92H108.347C108.752 15.92 109.072 15.8133 109.307 15.6C109.542 15.376 109.659 15.0613 109.659 14.656V13.92C109.659 13.5147 109.542 13.2053 109.307 12.992C109.072 12.7787 108.752 12.672 108.347 12.672H105.627V15.92ZM118.149 22.192C117.413 22.192 116.746 22.0693 116.149 21.824C115.552 21.5787 115.04 21.2107 114.613 20.72C114.197 20.2293 113.872 19.6267 113.637 18.912C113.402 18.1973 113.285 17.3653 113.285 16.416C113.285 15.4773 113.402 14.6507 113.637 13.936C113.872 13.2107 114.197 12.6027 114.613 12.112C115.04 11.6213 115.552 11.2533 116.149 11.008C116.746 10.7627 117.413 10.64 118.149 10.64C118.885 10.64 119.552 10.7627 120.149 11.008C120.746 11.2533 121.258 11.6213 121.685 12.112C122.112 12.6027 122.437 13.2107 122.661 13.936C122.896 14.6507 123.013 15.4773 123.013 16.416C123.013 17.3653 122.896 18.1973 122.661 18.912C122.437 19.6267 122.112 20.2293 121.685 20.72C121.258 21.2107 120.746 21.5787 120.149 21.824C119.552 22.0693 118.885 22.192 118.149 22.192ZM118.149 20.32C118.949 20.32 119.584 20.0533 120.053 19.52C120.533 18.9867 120.773 18.24 120.773 17.28V15.552C120.773 14.592 120.533 13.8453 120.053 13.312C119.584 12.7787 118.949 12.512 118.149 12.512C117.349 12.512 116.709 12.7787 116.229 13.312C115.76 13.8453 115.525 14.592 115.525 15.552V17.28C115.525 18.24 115.76 18.9867 116.229 19.52C116.709 20.0533 117.349 20.32 118.149 20.32Z" fill="#0E0E0E"/>
</svg>
