<svg width="16" height="16" viewBox="0 0 16 16" fill="none" xmlns="http://www.w3.org/2000/svg">
<path d="M2.66668 10.6666C2.66668 10.2984 2.96515 9.99992 3.33334 9.99992C3.70153 9.99992 4.00001 10.2984 4.00001 10.6666V13.3333H12V2.66659H4.00001V5.33325C4.00001 5.70144 3.70153 5.99992 3.33334 5.99992C2.96515 5.99992 2.66668 5.70144 2.66668 5.33325V1.99992C2.66668 1.82311 2.73691 1.65354 2.86194 1.52851C2.98696 1.40349 3.15653 1.33325 3.33334 1.33325H12.6667C12.8435 1.33325 13.0131 1.40349 13.1381 1.52851C13.2631 1.65354 13.3333 1.82311 13.3333 1.99992V13.9999C13.3333 14.1767 13.2631 14.3463 13.1381 14.4713C13.0131 14.5963 12.8435 14.6666 12.6667 14.6666H3.33334C3.15653 14.6666 2.98696 14.5963 2.86194 14.4713C2.73691 14.3463 2.66668 14.1767 2.66668 13.9999V10.6666ZM6.66668 7.33325V5.33325L10 7.99992L6.66668 10.6666V8.66659H2.00001C1.63182 8.66659 1.33334 8.36811 1.33334 7.99992C1.33334 7.63173 1.63182 7.33325 2.00001 7.33325H6.66668Z" fill="#AE1E1E"/>
</svg>
