<svg width="16" height="16" viewBox="0 0 16 16" fill="none" xmlns="http://www.w3.org/2000/svg">
<path d="M13.3333 14.0001C13.3333 14.3683 13.0349 14.6667 12.6667 14.6667C12.2985 14.6667 12 14.3683 12 14.0001V13.3334C12 12.803 11.7893 12.2943 11.4142 11.9192C11.0391 11.5441 10.5304 11.3334 10 11.3334H6C5.46957 11.3334 4.96086 11.5441 4.58579 11.9192C4.21072 12.2943 4.00001 12.803 4.00001 13.3334V14.0001C4.00001 14.3683 3.70153 14.6667 3.33334 14.6667C2.96515 14.6667 2.66667 14.3683 2.66667 14.0001V13.3334C2.66667 12.4494 3.01786 11.6015 3.64298 10.9764C4.2681 10.3513 5.11595 10.0001 6 10.0001H10C10.8841 10.0001 11.7319 10.3513 12.357 10.9764C12.9821 11.6015 13.3333 12.4494 13.3333 13.3334V14.0001ZM8 8.66675C7.47472 8.66675 6.95457 8.56328 6.46927 8.36227C5.98397 8.16125 5.54301 7.86661 5.17158 7.49518C4.80014 7.12374 4.50551 6.68278 4.30449 6.19748C4.10347 5.71218 4.00001 5.19204 4.00001 4.66675C4.00001 4.14146 4.10347 3.62132 4.30449 3.13601C4.50551 2.65071 4.80014 2.20976 5.17158 1.83832C5.54301 1.46689 5.98397 1.17225 6.46927 0.97123C6.95457 0.770211 7.47472 0.666748 8 0.666748C9.06087 0.666748 10.0783 1.08818 10.8284 1.83832C11.5786 2.58847 12 3.60588 12 4.66675C12 5.72761 11.5786 6.74503 10.8284 7.49518C10.0783 8.24532 9.06087 8.66675 8 8.66675ZM8 7.33342C8.70725 7.33342 9.38553 7.05246 9.88562 6.55237C10.3857 6.05227 10.6667 5.37399 10.6667 4.66675C10.6667 3.9595 10.3857 3.28123 9.88562 2.78113C9.38553 2.28103 8.70725 2.00008 8 2.00008C7.29276 2.00008 6.61448 2.28103 6.11439 2.78113C5.61429 3.28123 5.33334 3.9595 5.33334 4.66675C5.33334 5.37399 5.61429 6.05227 6.11439 6.55237C6.61448 7.05246 7.29276 7.33342 8 7.33342Z" fill="#666666"/>
</svg>
