<svg width="16" height="16" viewBox="0 0 16 16" fill="none" xmlns="http://www.w3.org/2000/svg">
<g clip-path="url(#clip0_4490_221)">
<path d="M8.00001 14.6666C4.31801 14.6666 1.33334 11.6819 1.33334 7.99992C1.33334 4.31792 4.31801 1.33325 8.00001 1.33325C11.682 1.33325 14.6667 4.31792 14.6667 7.99992C14.6667 11.6819 11.682 14.6666 8.00001 14.6666ZM8.00001 13.3333C9.4145 13.3333 10.7711 12.7713 11.7712 11.7712C12.7714 10.771 13.3333 9.41441 13.3333 7.99992C13.3333 6.58543 12.7714 5.22888 11.7712 4.22868C10.7711 3.22849 9.4145 2.66659 8.00001 2.66659C6.58552 2.66659 5.22897 3.22849 4.22877 4.22868C3.22858 5.22888 2.66668 6.58543 2.66668 7.99992C2.66668 9.41441 3.22858 10.771 4.22877 11.7712C5.22897 12.7713 6.58552 13.3333 8.00001 13.3333ZM7.33334 9.99992H8.66668V11.3333H7.33334V9.99992ZM8.66668 8.90325V9.33325H7.33334V8.33325C7.33334 8.15644 7.40358 7.98687 7.52861 7.86185C7.65363 7.73682 7.8232 7.66659 8.00001 7.66659C8.1894 7.66657 8.37488 7.61278 8.53489 7.51147C8.6949 7.41016 8.82285 7.2655 8.90386 7.09431C8.98486 6.92312 9.01559 6.73245 8.99247 6.54448C8.96934 6.35651 8.89331 6.17898 8.77323 6.03253C8.65315 5.88608 8.49395 5.77674 8.31416 5.71723C8.13436 5.65773 7.94137 5.6505 7.75763 5.69639C7.57389 5.74228 7.40695 5.83941 7.27625 5.97646C7.14556 6.11352 7.05646 6.28487 7.01934 6.47059L5.71134 6.20859C5.79243 5.80331 5.97968 5.42683 6.25396 5.11764C6.52823 4.80845 6.87969 4.57764 7.2724 4.4488C7.66512 4.31996 8.085 4.29771 8.48913 4.38433C8.89326 4.47095 9.26714 4.66333 9.57256 4.9418C9.87797 5.22028 10.104 5.57486 10.2274 5.96929C10.3509 6.36373 10.3674 6.78388 10.2753 7.18679C10.1831 7.5897 9.98565 7.96092 9.70302 8.26249C9.4204 8.56407 9.06277 8.78519 8.66668 8.90325Z" fill="#0E0E0E"/>
</g>
<defs>
<clipPath id="clip0_4490_221">
<rect width="16" height="16" fill="white"/>
</clipPath>
</defs>
</svg>
