<svg width="16" height="16" viewBox="0 0 16 16" fill="none" xmlns="http://www.w3.org/2000/svg">
<path d="M8 14.6666C4.3181 14.6666 1.33334 11.6818 1.33334 7.99992C1.33334 4.31802 4.3181 1.33325 8 1.33325C11.6819 1.33325 14.6667 4.31802 14.6667 7.99992C14.6667 11.6818 11.6819 14.6666 8 14.6666ZM6.47335 13.1115C5.83162 11.7505 5.43822 10.2494 5.35154 8.66659H2.70793C2.972 10.7843 4.4776 12.5164 6.47335 13.1115ZM6.68714 8.66659C6.7874 10.2925 7.25187 11.8197 8 13.1679C8.74814 11.8197 9.2126 10.2925 9.31287 8.66659H6.68714ZM13.2921 8.66659H10.6485C10.5618 10.2494 10.1684 11.7505 9.52667 13.1115C11.5224 12.5164 13.028 10.7843 13.2921 8.66659ZM2.70793 7.33325H5.35154C5.43822 5.75043 5.83162 4.2493 6.47335 2.88829C4.4776 3.48347 2.972 5.21559 2.70793 7.33325ZM6.68714 7.33325H9.31287C9.2126 5.7074 8.74814 4.18009 8 2.83191C7.25187 4.18009 6.7874 5.7074 6.68714 7.33325ZM9.52667 2.88829C10.1684 4.2493 10.5618 5.75043 10.6485 7.33325H13.2921C13.028 5.21559 11.5224 3.48347 9.52667 2.88829Z" fill="#666666"/>
</svg>
