<svg width="16" height="16" viewBox="0 0 16 16" fill="none" xmlns="http://www.w3.org/2000/svg">
<g clip-path="url(#clip0_4511_1056)">
<path d="M9.33333 12V13.3333L10.6667 14V14.6667H5.33333L5.33067 14.0027L6.66667 13.3333V12H1.99467C1.90712 11.9995 1.82054 11.9817 1.73989 11.9476C1.65924 11.9136 1.5861 11.864 1.52466 11.8016C1.46322 11.7392 1.4147 11.6654 1.38187 11.5842C1.34903 11.503 1.33254 11.4162 1.33333 11.3287V2.67133C1.33333 2.30067 1.63667 2 1.99467 2H14.0053C14.3707 2 14.6667 2.29933 14.6667 2.67133V11.3287C14.6667 11.6993 14.3633 12 14.0053 12H9.33333ZM2.66667 3.33333V9.33333H13.3333V3.33333H2.66667Z" fill="#0E0E0E"/>
</g>
<defs>
<clipPath id="clip0_4511_1056">
<rect width="16" height="16" fill="white"/>
</clipPath>
</defs>
</svg>
