<svg width="16" height="16" viewBox="0 0 16 16" fill="none" xmlns="http://www.w3.org/2000/svg">
<g clip-path="url(#clip0_4511_99)">
<path d="M13.3333 1.33325C13.7013 1.33325 14 1.63192 14 1.99992V4.50459L12.6667 5.83792V2.66659H3.33333V13.3333H12.6667V11.4946L14 10.1613V13.9999C14 14.3679 13.7013 14.6666 13.3333 14.6666H2.66667C2.29867 14.6666 2 14.3679 2 13.9999V1.99992C2 1.63192 2.29867 1.33325 2.66667 1.33325H13.3333ZM14.0473 6.34325C14.3076 6.08294 14.7297 6.08294 14.99 6.34325C15.2503 6.60356 15.2503 7.02561 14.99 7.28592L10.276 11.9999L9.332 11.9986L9.33333 11.0573L14.0473 6.34325ZM8 7.99992C8.36819 7.99992 8.66667 8.2984 8.66667 8.66659C8.66667 9.03478 8.36819 9.33325 8 9.33325H6C5.63181 9.33325 5.33333 9.03478 5.33333 8.66659C5.33333 8.2984 5.63181 7.99992 6 7.99992H8ZM10 5.33325C10.3682 5.33325 10.6667 5.63173 10.6667 5.99992C10.6667 6.36811 10.3682 6.66659 10 6.66659H6C5.63181 6.66659 5.33333 6.36811 5.33333 5.99992C5.33333 5.63173 5.63181 5.33325 6 5.33325H10Z" fill="#0E0E0E"/>
</g>
<defs>
<clipPath id="clip0_4511_99">
<rect width="16" height="16" fill="white"/>
</clipPath>
</defs>
</svg>
