<svg version="1.2" xmlns="http://www.w3.org/2000/svg" viewBox="0 0 1586 1578" width="1586" height="1578">
	<title>Anheuser-Busch_InBev_Logo_2022-svg</title>
	<defs>
		<clipPath clipPathUnits="userSpaceOnUse" id="cp1">
			<path d="m669.69 1577.94c-234.3-36.5-449.86-176.73-573.45-400.07-42.32-76.46-70.44-156.88-85.66-238.29 50.33 8.61 101.12 21.68 151.65 39.77 300.43 107.57 498.93 353.94 507.46 598.59zm-669.69-852.22c22.24-254.32 166.69-493.33 407.21-626.11 165.52-91.38 349.48-117.38 522.26-86.83-36.8 375.27-342.04 683.91-738.63 718.46-65.08 5.66-128.96 3.43-190.84-5.52zm1315.53-528.19c67.18 58.87 125.53 130.07 171.26 212.69 212.24 383.52 73.02 866.28-310.97 1078.26-64.52 35.62-131.88 61.1-200.25 77.4-123.79-162.95-193.38-368.43-183.24-588.74 16.04-348.44 227.25-641.65 523.2-779.61z"/>
		</clipPath>
		<linearGradient id="g1" x1="0" y1="789.3" x2="1586.1" y2="789.3" gradientUnits="userSpaceOnUse">
			<stop offset="0" stop-color="#cd9f28"/>
			<stop offset="1" stop-color="#ecd80b"/>
		</linearGradient>
	</defs>
	<style>
		.s0 { fill: url(#g1) } 
	</style>
	<g id="g10">
		<g id="g12">
			<g id="g14">
				<g id="Clip-Path: g16" clip-path="url(#cp1)">
					<g id="g16">
						<path id="path28" class="s0" d="m669.7 1577.9c-234.3-36.5-449.9-176.7-573.5-400-42.3-76.5-70.4-156.9-85.6-238.3 50.3 8.6 101.1 21.7 151.6 39.7 300.5 107.6 499 354 507.5 598.6zm-669.7-852.2c22.2-254.3 166.7-493.3 407.2-626.1 165.5-91.4 349.5-117.4 522.3-86.8-36.8 375.3-342.1 683.9-738.7 718.4-65 5.7-128.9 3.5-190.8-5.5zm1315.5-528.2c67.2 58.9 125.6 130.1 171.3 212.7 212.2 383.5 73 866.3-311 1078.3-64.5 35.6-131.9 61.1-200.2 77.4-123.8-163-193.4-368.4-183.3-588.8 16.1-348.4 227.3-641.6 523.2-779.6z"/>
					</g>
				</g>
			</g>
		</g>
	</g>
</svg>